<?xml version="1.0" encoding="UTF-8"?>
<!DOCTYPE svg PUBLIC "-//W3C//DTD SVG 1.1//EN" "http://www.w3.org/Graphics/SVG/1.1/DTD/svg11.dtd">
<svg xmlns="http://www.w3.org/2000/svg" version="1.1" width="3840px" height="2160px" style="shape-rendering:geometricPrecision; text-rendering:geometricPrecision; image-rendering:optimizeQuality; fill-rule:evenodd; clip-rule:evenodd" xmlns:xlink="http://www.w3.org/1999/xlink">
<g><path style="opacity:0.953" fill="#fefffe" d="M 2600.5,786.5 C 2618.19,783.458 2633.36,788.125 2646,800.5C 2648.69,804.554 2650.86,808.888 2652.5,813.5C 2652.29,814.086 2651.96,814.586 2651.5,815C 2642.24,817.975 2633.08,821.141 2624,824.5C 2619.77,812.09 2612.11,809.424 2601,816.5C 2596.53,824.892 2595.87,833.559 2599,842.5C 2603.13,848.97 2608.96,851.137 2616.5,849C 2621.06,846.944 2623.4,843.444 2623.5,838.5C 2633.8,839.824 2643.8,842.157 2653.5,845.5C 2649.19,861.64 2638.86,871.474 2622.5,875C 2588.18,879.876 2569.52,865.209 2566.5,831C 2566.9,807.47 2578.24,792.636 2600.5,786.5 Z"/></g>
<g><path style="opacity:0.956" fill="#fefffe" d="M 2747.5,786.5 C 2771.5,786.5 2795.5,786.5 2819.5,786.5C 2819.5,794.833 2819.5,803.167 2819.5,811.5C 2804.83,811.5 2790.17,811.5 2775.5,811.5C 2775.5,814.167 2775.5,816.833 2775.5,819.5C 2787.5,819.5 2799.5,819.5 2811.5,819.5C 2811.5,827.167 2811.5,834.833 2811.5,842.5C 2799.5,842.5 2787.5,842.5 2775.5,842.5C 2775.5,845.167 2775.5,847.833 2775.5,850.5C 2790.83,850.5 2806.17,850.5 2821.5,850.5C 2821.5,858.833 2821.5,867.167 2821.5,875.5C 2796.83,875.5 2772.17,875.5 2747.5,875.5C 2747.5,845.833 2747.5,816.167 2747.5,786.5 Z"/></g>
<g><path style="opacity:0.979" fill="#fefffe" d="M 2658.5,787.5 C 2677.5,787.333 2696.5,787.5 2715.5,788C 2736.1,794.018 2743.6,807.518 2738,828.5C 2736.59,831.661 2734.92,834.661 2733,837.5C 2730.18,839.317 2727.68,841.483 2725.5,844C 2731.24,854.149 2737.24,864.149 2743.5,874C 2732.48,874.832 2721.48,874.666 2710.5,873.5C 2705.83,865.5 2701.17,857.5 2696.5,849.5C 2693.23,848.513 2689.9,848.18 2686.5,848.5C 2686.5,857.167 2686.5,865.833 2686.5,874.5C 2677.17,874.5 2667.83,874.5 2658.5,874.5C 2658.5,845.5 2658.5,816.5 2658.5,787.5 Z M 2686.5,810.5 C 2692.51,810.334 2698.51,810.501 2704.5,811C 2711.17,814.941 2711.84,819.607 2706.5,825C 2699.92,826.377 2693.26,826.877 2686.5,826.5C 2686.5,821.167 2686.5,815.833 2686.5,810.5 Z"/></g>
<g><path style="opacity:0.964" fill="#fefffe" d="M 2823.5,787.5 C 2833.85,787.168 2844.19,787.501 2854.5,788.5C 2858.06,805.142 2861.56,821.809 2865,838.5C 2869.28,821.585 2873.12,804.585 2876.5,787.5C 2885.86,787.168 2895.19,787.502 2904.5,788.5C 2908.49,805.454 2912.32,822.454 2916,839.5C 2920.15,822.228 2923.98,804.895 2927.5,787.5C 2936.83,787.5 2946.17,787.5 2955.5,787.5C 2948.65,816.226 2941.49,844.892 2934,873.5C 2922.91,874.487 2911.75,874.821 2900.5,874.5C 2897.37,858 2893.53,841.667 2889,825.5C 2885.18,841.779 2881.68,858.112 2878.5,874.5C 2867.48,874.832 2856.48,874.499 2845.5,873.5C 2837.85,844.906 2830.52,816.239 2823.5,787.5 Z"/></g>
<g><path style="opacity:0.885" fill="#fefffe" d="M 847.5,813.5 C 853.176,813.334 858.843,813.501 864.5,814C 874.126,816.888 877.293,823.055 874,832.5C 871.588,836.916 868.422,840.749 864.5,844C 856.362,850.126 847.696,855.46 838.5,860C 833.589,862.611 828.589,862.944 823.5,861C 821.128,858.156 821.294,855.323 824,852.5C 825.833,850.667 827.667,848.833 829.5,847C 826.167,846.667 822.833,846.333 819.5,846C 816.766,845.282 816.1,843.782 817.5,841.5C 818.478,841.977 819.311,842.643 820,843.5C 825.952,841.068 832.119,839.901 838.5,840C 841.034,842.587 841.034,845.253 838.5,848C 848.54,843.645 856.54,836.645 862.5,827C 860.148,825.272 857.481,824.439 854.5,824.5C 824.535,829.311 801.702,844.645 786,870.5C 785.754,864.818 787.087,859.485 790,854.5C 804.056,833.603 823.223,819.936 847.5,813.5 Z"/></g>
<g><path style="opacity:0.892" fill="#fefffe" d="M 898.5,827.5 C 910.153,824.744 918.32,828.744 923,839.5C 924.333,844.167 925.667,848.833 927,853.5C 928.299,854.98 929.966,855.646 932,855.5C 937.283,854.843 942.45,853.677 947.5,852C 963.167,846.333 978.833,840.667 994.5,835C 1014.34,828.806 1034.34,828.139 1054.5,833C 1068.9,837.465 1083.23,842.132 1097.5,847C 1119.57,854.465 1141.57,854.298 1163.5,846.5C 1164.28,848.329 1163.62,849.829 1161.5,851C 1142.99,861.83 1123.32,864.497 1102.5,859C 1084.06,852.852 1065.39,847.519 1046.5,843C 1031.3,840.763 1016.3,841.763 1001.5,846C 982.897,852.534 964.23,858.868 945.5,865C 925.573,871.128 914.073,863.961 911,843.5C 908.752,837.767 904.586,835.933 898.5,838C 889.071,841.213 880.738,846.213 873.5,853C 879.911,855.041 879.411,856.541 872,857.5C 867.849,857.549 866.516,855.549 868,851.5C 871.083,846.412 874.917,841.912 879.5,838C 885.316,833.428 891.649,829.928 898.5,827.5 Z"/></g>
<g><path style="opacity:0.71" fill="#fefffe" d="M 808.5,871.5 C 815.841,871.334 823.174,871.5 830.5,872C 831.191,873.067 831.691,874.234 832,875.5C 835.849,899.436 838.849,923.436 841,947.5C 834.582,948.643 828.082,948.81 821.5,948C 819.649,943.054 818.649,937.887 818.5,932.5C 811.825,932.334 805.158,932.5 798.5,933C 795.87,938.225 792.87,943.225 789.5,948C 782.508,948.5 775.508,948.666 768.5,948.5C 768.336,945.813 768.503,943.146 769,940.5C 782.178,917.473 795.345,894.473 808.5,871.5 Z M 813.5,904.5 C 815.223,906.78 815.889,909.447 815.5,912.5C 813.712,912.785 812.045,912.452 810.5,911.5C 812.02,909.338 813.02,907.005 813.5,904.5 Z"/></g>
<g><path style="opacity:0.669" fill="#fefffe" d="M 858.5,871.5 C 865.422,871.188 872.256,871.521 879,872.5C 876.469,890.637 872.969,908.637 868.5,926.5C 878.944,926.096 889.611,926.596 900.5,928C 901.059,928.725 901.392,929.558 901.5,930.5C 900.486,936.258 899.153,941.924 897.5,947.5C 879.269,948.825 861.102,948.825 843,947.5C 842.482,943.449 842.816,939.449 844,935.5C 848.522,914.05 853.356,892.716 858.5,871.5 Z"/></g>
<g><path style="opacity:0.716" fill="#fefffe" d="M 942.5,871.5 C 954.505,871.333 966.505,871.5 978.5,872C 990.374,875.216 996.374,883.05 996.5,895.5C 996.525,907.294 991.525,916.128 981.5,922C 984.024,926.553 985.858,931.386 987,936.5C 999.36,914.95 1011.86,893.45 1024.5,872C 1031.83,871.333 1039.17,871.333 1046.5,872C 1050.28,894.069 1053.78,916.236 1057,938.5C 1057.67,941.5 1057.67,944.5 1057,947.5C 1050.22,948.811 1043.39,948.811 1036.5,947.5C 1035.27,942.585 1034.61,937.585 1034.5,932.5C 1027.83,932.334 1021.16,932.5 1014.5,933C 1011.5,938 1008.5,943 1005.5,948C 992.833,948.667 980.167,948.667 967.5,948C 964.771,940.59 962.271,933.09 960,925.5C 957.619,924.565 955.119,924.232 952.5,924.5C 951.193,932.544 949.193,940.378 946.5,948C 939.842,948.5 933.175,948.666 926.5,948.5C 926.34,943.434 926.84,938.434 928,933.5C 932.278,912.59 937.112,891.923 942.5,871.5 Z M 959.5,892.5 C 963.967,892.133 968.3,892.633 972.5,894C 974.682,898.639 973.349,901.639 968.5,903C 964.848,903.499 961.182,903.665 957.5,903.5C 957.659,899.709 958.325,896.042 959.5,892.5 Z M 1029.5,904.5 C 1030.77,906.905 1031.43,909.572 1031.5,912.5C 1029.47,912.662 1027.47,912.495 1025.5,912C 1027.49,909.843 1028.83,907.343 1029.5,904.5 Z"/></g>
<g><path style="opacity:0.676" fill="#fefffe" d="M 1103.5,871.5 C 1110.17,871.334 1116.84,871.5 1123.5,872C 1124.11,873.231 1124.44,874.564 1124.5,876C 1120.89,894.626 1116.72,913.126 1112,931.5C 1107.09,944.294 1097.75,950.294 1084,949.5C 1067.55,949.878 1059.05,941.878 1058.5,925.5C 1058.53,921.764 1059.03,918.097 1060,914.5C 1062.77,912.953 1065.77,911.953 1069,911.5C 1072.3,911.499 1075.8,911.666 1079.5,912C 1081.25,916.531 1082.08,921.365 1082,926.5C 1087.29,928.834 1090.63,927.167 1092,921.5C 1095.65,904.745 1099.48,888.078 1103.5,871.5 Z"/></g>
<g><path style="opacity:0.709" fill="#fefffe" d="M 1149.5,871.5 C 1156.84,871.334 1164.17,871.5 1171.5,872C 1175.55,893.684 1179.05,915.518 1182,937.5C 1182.67,940.833 1182.67,944.167 1182,947.5C 1175.22,948.811 1168.39,948.811 1161.5,947.5C 1160.42,942.566 1159.76,937.566 1159.5,932.5C 1152.83,932.334 1146.16,932.5 1139.5,933C 1137,938.332 1134,943.332 1130.5,948C 1123.51,948.5 1116.51,948.666 1109.5,948.5C 1109.18,945.022 1109.68,941.688 1111,938.5C 1123.85,916.139 1136.68,893.806 1149.5,871.5 Z M 1154.5,904.5 C 1156.04,906.838 1156.71,909.505 1156.5,912.5C 1154.47,912.662 1152.47,912.495 1150.5,912C 1153.02,910.117 1154.36,907.617 1154.5,904.5 Z"/></g>
<g><path style="opacity:0.841" fill="#fefffe" d="M 2511.5,895.5 C 2515.18,895.335 2518.85,895.501 2522.5,896C 2524.55,896.687 2526.22,897.854 2527.5,899.5C 2525.99,901.507 2524.16,903.174 2522,904.5C 2518.59,900.265 2515.09,899.932 2511.5,903.5C 2514.73,905.074 2517.9,906.741 2521,908.5C 2522.34,914.493 2520.17,918.66 2514.5,921C 2510.83,921.667 2507.17,921.667 2503.5,921C 2496.68,919.072 2496.01,916.072 2501.5,912C 2504.06,913.494 2506.9,914.66 2510,915.5C 2511.97,915.691 2513.47,915.024 2514.5,913.5C 2511.27,911.926 2508.1,910.259 2505,908.5C 2503.88,902.469 2506.05,898.136 2511.5,895.5 Z"/></g>
<g><path style="opacity:0.858" fill="#fefffe" d="M 2537.5,895.5 C 2549.52,893.352 2554.02,898.018 2551,909.5C 2545.6,921.045 2537.27,924.045 2526,918.5C 2523.93,907.963 2527.77,900.297 2537.5,895.5 Z M 2538.5,901.5 C 2545.05,900.929 2546.88,903.596 2544,909.5C 2540.79,915.838 2536.62,916.838 2531.5,912.5C 2532.61,907.916 2534.95,904.25 2538.5,901.5 Z"/></g>
<g><path style="opacity:0.851" fill="#fefffe" d="M 2560.5,895.5 C 2562.86,895.337 2565.19,895.503 2567.5,896C 2564.17,902.333 2560.83,908.667 2557.5,915C 2561.83,915.333 2566.17,915.667 2570.5,916C 2569.5,917.667 2568.5,919.333 2567.5,921C 2560.83,921.667 2554.17,921.667 2547.5,921C 2551.97,912.551 2556.31,904.051 2560.5,895.5 Z"/></g>
<g><path style="opacity:0.84" fill="#fefffe" d="M 2580.5,895.5 C 2582.92,895.192 2585.26,895.526 2587.5,896.5C 2584.7,901.939 2582.03,907.439 2579.5,913C 2580.04,914.947 2581.38,915.78 2583.5,915.5C 2585.37,915.61 2586.87,914.944 2588,913.5C 2590.83,907.833 2593.67,902.167 2596.5,896.5C 2598.83,895.167 2601.17,895.167 2603.5,896.5C 2600.33,902.833 2597.17,909.167 2594,915.5C 2589.07,921.118 2582.9,922.951 2575.5,921C 2572.71,918.79 2571.88,915.956 2573,912.5C 2575.51,906.812 2578.01,901.145 2580.5,895.5 Z"/></g>
<g><path style="opacity:0.846" fill="#fefffe" d="M 2606.5,895.5 C 2614.51,895.334 2622.51,895.5 2630.5,896C 2629.5,897.667 2628.5,899.333 2627.5,901C 2624.45,901.179 2621.45,901.679 2618.5,902.5C 2615.5,908.5 2612.5,914.5 2609.5,920.5C 2607.17,921.833 2604.83,921.833 2602.5,920.5C 2605.5,914.5 2608.5,908.5 2611.5,902.5C 2609.26,901.526 2606.92,901.192 2604.5,901.5C 2604.6,899.297 2605.27,897.297 2606.5,895.5 Z"/></g>
<g><path style="opacity:0.833" fill="#fefffe" d="M 2632.5,895.5 C 2634.86,895.337 2637.19,895.503 2639.5,896C 2635.21,904.089 2631.04,912.255 2627,920.5C 2624.6,921.602 2622.1,921.769 2619.5,921C 2623.97,912.551 2628.31,904.051 2632.5,895.5 Z"/></g>
<g><path style="opacity:0.858" fill="#fefffe" d="M 2648.5,895.5 C 2660.52,893.352 2665.02,898.018 2662,909.5C 2656.6,921.045 2648.27,924.045 2637,918.5C 2634.93,907.963 2638.77,900.297 2648.5,895.5 Z M 2649.5,901.5 C 2656.05,900.929 2657.88,903.596 2655,909.5C 2651.79,915.838 2647.62,916.838 2642.5,912.5C 2643.61,907.916 2645.95,904.25 2649.5,901.5 Z"/></g>
<g><path style="opacity:0.848" fill="#fefffe" d="M 2671.5,895.5 C 2674.17,895.5 2676.83,895.5 2679.5,895.5C 2679.25,900.58 2679.75,905.58 2681,910.5C 2683.33,905.833 2685.67,901.167 2688,896.5C 2690.14,895.231 2692.31,895.231 2694.5,896.5C 2690.5,904.5 2686.5,912.5 2682.5,920.5C 2679.91,921.48 2677.25,921.813 2674.5,921.5C 2674.83,916.125 2674.49,910.792 2673.5,905.5C 2670.58,910.341 2667.91,915.341 2665.5,920.5C 2663.24,921.647 2660.9,921.814 2658.5,921C 2662.97,912.551 2667.31,904.051 2671.5,895.5 Z"/></g>
<g><path style="opacity:0.859" fill="#fefffe" d="M 2710.5,895.5 C 2717.17,895.334 2723.84,895.5 2730.5,896C 2729.5,897.667 2728.5,899.333 2727.5,901C 2722.91,901.197 2718.41,901.697 2714,902.5C 2713.5,903.5 2713,904.5 2712.5,905.5C 2715.83,906.167 2719.17,906.833 2722.5,907.5C 2721.83,908.833 2721.17,910.167 2720.5,911.5C 2716.5,912.167 2712.5,912.833 2708.5,913.5C 2707.29,916.079 2705.96,918.579 2704.5,921C 2702.17,921.667 2699.83,921.667 2697.5,921C 2701.97,912.551 2706.31,904.051 2710.5,895.5 Z"/></g>
<g><path style="opacity:0.858" fill="#fefffe" d="M 2736.5,895.5 C 2748.52,893.352 2753.02,898.018 2750,909.5C 2744.6,921.045 2736.27,924.045 2725,918.5C 2722.93,907.963 2726.77,900.297 2736.5,895.5 Z M 2737.5,901.5 C 2744.05,900.929 2745.88,903.596 2743,909.5C 2739.79,915.838 2735.62,916.838 2730.5,912.5C 2731.61,907.916 2733.95,904.25 2737.5,901.5 Z"/></g>
<g><path style="opacity:0.883" fill="#fefffe" d="M 2760.5,895.5 C 2765.51,895.334 2770.51,895.501 2775.5,896C 2778.95,898.944 2779.45,902.444 2777,906.5C 2774.43,909.066 2771.93,911.566 2769.5,914C 2770.32,916.434 2770.66,918.934 2770.5,921.5C 2768.17,921.5 2765.83,921.5 2763.5,921.5C 2763.66,918.813 2763.5,916.146 2763,913.5C 2761.51,912.253 2760.01,912.253 2758.5,913.5C 2757.29,916.079 2755.96,918.579 2754.5,921C 2752.17,921.667 2749.83,921.667 2747.5,921C 2751.97,912.551 2756.31,904.051 2760.5,895.5 Z M 2764.5,900.5 C 2766.59,900.318 2768.59,900.652 2770.5,901.5C 2771.64,904.248 2770.64,906.081 2767.5,907C 2765.5,907.667 2763.5,907.667 2761.5,907C 2762.91,905.007 2763.91,902.84 2764.5,900.5 Z"/></g>
<g><path style="opacity:0.868" fill="#fefffe" d="M 2791.5,895.5 C 2793.83,895.5 2796.17,895.5 2798.5,895.5C 2798.19,898.247 2798.52,900.914 2799.5,903.5C 2802.32,901.183 2804.98,898.683 2807.5,896C 2810.5,895.333 2813.5,895.333 2816.5,896C 2810.36,901.134 2804.53,906.634 2799,912.5C 2797.67,915.167 2796.33,917.833 2795,920.5C 2792.6,921.602 2790.1,921.769 2787.5,921C 2792.56,913.19 2793.89,904.69 2791.5,895.5 Z"/></g>
<g><path style="opacity:0.858" fill="#fefffe" d="M 2820.5,895.5 C 2832.52,893.352 2837.02,898.018 2834,909.5C 2828.6,921.045 2820.27,924.045 2809,918.5C 2806.93,907.963 2810.77,900.297 2820.5,895.5 Z M 2821.5,901.5 C 2828.05,900.929 2829.88,903.596 2827,909.5C 2823.79,915.838 2819.62,916.838 2814.5,912.5C 2815.61,907.916 2817.95,904.25 2821.5,901.5 Z"/></g>
<g><path style="opacity:0.84" fill="#fefffe" d="M 2843.5,895.5 C 2845.92,895.192 2848.26,895.526 2850.5,896.5C 2847.7,901.939 2845.03,907.439 2842.5,913C 2843.04,914.947 2844.38,915.78 2846.5,915.5C 2848.37,915.61 2849.87,914.944 2851,913.5C 2853.83,907.833 2856.67,902.167 2859.5,896.5C 2861.83,895.167 2864.17,895.167 2866.5,896.5C 2863.33,902.833 2860.17,909.167 2857,915.5C 2852.07,921.118 2845.9,922.951 2838.5,921C 2835.71,918.79 2834.88,915.956 2836,912.5C 2838.51,906.812 2841.01,901.145 2843.5,895.5 Z"/></g>
<g><path style="opacity:0.883" fill="#fefffe" d="M 2870.5,895.5 C 2875.51,895.334 2880.51,895.501 2885.5,896C 2888.95,898.944 2889.45,902.444 2887,906.5C 2884.43,909.066 2881.93,911.566 2879.5,914C 2880.32,916.434 2880.66,918.934 2880.5,921.5C 2878.17,921.5 2875.83,921.5 2873.5,921.5C 2873.66,918.813 2873.5,916.146 2873,913.5C 2871.51,912.253 2870.01,912.253 2868.5,913.5C 2867.29,916.079 2865.96,918.579 2864.5,921C 2862.17,921.667 2859.83,921.667 2857.5,921C 2861.97,912.551 2866.31,904.051 2870.5,895.5 Z M 2874.5,900.5 C 2876.59,900.318 2878.59,900.652 2880.5,901.5C 2881.64,904.248 2880.64,906.081 2877.5,907C 2875.5,907.667 2873.5,907.667 2871.5,907C 2872.91,905.007 2873.91,902.84 2874.5,900.5 Z"/></g>
<g><path style="opacity:0.841" fill="#fefffe" d="M 2908.5,895.5 C 2912.18,895.335 2915.85,895.501 2919.5,896C 2921.55,896.687 2923.22,897.854 2924.5,899.5C 2922.99,901.507 2921.16,903.174 2919,904.5C 2915.59,900.265 2912.09,899.932 2908.5,903.5C 2911.73,905.074 2914.9,906.741 2918,908.5C 2919.34,914.493 2917.17,918.66 2911.5,921C 2907.83,921.667 2904.17,921.667 2900.5,921C 2893.68,919.072 2893.01,916.072 2898.5,912C 2901.06,913.494 2903.9,914.66 2907,915.5C 2908.97,915.691 2910.47,915.024 2911.5,913.5C 2908.27,911.926 2905.1,910.259 2902,908.5C 2900.88,902.469 2903.05,898.136 2908.5,895.5 Z"/></g>
<g><path style="opacity:0.851" fill="#fefffe" d="M 2930.5,895.5 C 2932.86,895.337 2935.19,895.503 2937.5,896C 2934.17,902.333 2930.83,908.667 2927.5,915C 2931.83,915.333 2936.17,915.667 2940.5,916C 2939.5,917.667 2938.5,919.333 2937.5,921C 2930.83,921.667 2924.17,921.667 2917.5,921C 2921.97,912.551 2926.31,904.051 2930.5,895.5 Z"/></g>
<g><path style="opacity:0.874" fill="#fefffe" d="M 2953.5,895.5 C 2960.2,895.17 2966.87,895.503 2973.5,896.5C 2972.83,897.833 2972.17,899.167 2971.5,900.5C 2966.87,901.328 2962.2,901.828 2957.5,902C 2956.71,903.085 2956.04,904.252 2955.5,905.5C 2958.83,906.167 2962.17,906.833 2965.5,907.5C 2965,908.5 2964.5,909.5 2964,910.5C 2960.25,911.297 2956.42,911.797 2952.5,912C 2951.83,913 2951.17,914 2950.5,915C 2955.17,915.333 2959.83,915.667 2964.5,916C 2963.74,917.441 2963.07,918.941 2962.5,920.5C 2955.19,921.665 2947.86,921.831 2940.5,921C 2944.97,912.551 2949.31,904.051 2953.5,895.5 Z"/></g>
<g><path style="opacity:0.874" fill="#fefffe" d="M 2977.5,895.5 C 2984.2,895.17 2990.87,895.503 2997.5,896.5C 2996.83,897.833 2996.17,899.167 2995.5,900.5C 2990.87,901.328 2986.2,901.828 2981.5,902C 2980.71,903.085 2980.04,904.252 2979.5,905.5C 2982.83,906.167 2986.17,906.833 2989.5,907.5C 2989,908.5 2988.5,909.5 2988,910.5C 2984.25,911.297 2980.42,911.797 2976.5,912C 2975.83,913 2975.17,914 2974.5,915C 2979.17,915.333 2983.83,915.667 2988.5,916C 2987.74,917.441 2987.07,918.941 2986.5,920.5C 2979.19,921.665 2971.86,921.831 2964.5,921C 2968.97,912.551 2973.31,904.051 2977.5,895.5 Z"/></g>
<g><path style="opacity:0.87" fill="#fefffe" d="M 3001.5,895.5 C 3006.51,895.334 3011.51,895.501 3016.5,896C 3020.22,903.585 3018.22,909.251 3010.5,913C 3006.5,913.833 3002.5,914.667 2998.5,915.5C 2997.29,921.089 2993.96,922.922 2988.5,921C 2992.97,912.551 2997.31,904.051 3001.5,895.5 Z M 3005.5,901.5 C 3007.5,901.5 3009.5,901.5 3011.5,901.5C 3011.04,907.233 3008.04,909.233 3002.5,907.5C 3003.51,905.473 3004.51,903.473 3005.5,901.5 Z"/></g>
<g><path style="opacity:0.625" fill="#fefffe" d="M 2494.5,926.5 C 2666.83,926.5 2839.17,926.5 3011.5,926.5C 3011.5,927.5 3011.5,928.5 3011.5,929.5C 2838.83,929.833 2666.17,929.5 2493.5,928.5C 2493.86,927.817 2494.2,927.15 2494.5,926.5 Z"/></g>
<g><path style="opacity:0.931" fill="#fdfdfd" d="M 2659.5,949.5 C 2674.65,947.819 2681.15,954.486 2679,969.5C 2674.94,977.61 2668.44,980.443 2659.5,978C 2651.39,973.936 2648.56,967.436 2651,958.5C 2652.69,954.315 2655.52,951.315 2659.5,949.5 Z"/></g>
<g><path style="opacity:0.641" fill="#fefffe" d="M 772.5,954.5 C 907.834,954.333 1043.17,954.5 1178.5,955C 1179,955.5 1179.5,956 1180,956.5C 1180.81,964.08 1180.65,971.58 1179.5,979C 1043.17,979.833 906.832,979.667 770.5,978.5C 769.37,971.55 769.203,964.55 770,957.5C 770.698,956.309 771.531,955.309 772.5,954.5 Z M 772.5,957.5 C 907.5,957.5 1042.5,957.5 1177.5,957.5C 1177.5,964.167 1177.5,970.833 1177.5,977.5C 1042.5,977.5 907.5,977.5 772.5,977.5C 772.5,970.833 772.5,964.167 772.5,957.5 Z M 896.5,963.5 C 898.346,963.222 899.68,963.889 900.5,965.5C 899.311,966.429 897.978,966.762 896.5,966.5C 896.5,965.5 896.5,964.5 896.5,963.5 Z M 1157.5,963.5 C 1159.35,963.222 1160.68,963.889 1161.5,965.5C 1160.31,966.429 1158.98,966.762 1157.5,966.5C 1157.5,965.5 1157.5,964.5 1157.5,963.5 Z M 819.5,965.5 C 821.465,965.948 821.798,966.948 820.5,968.5C 819.614,967.675 819.281,966.675 819.5,965.5 Z"/></g>
<g><path style="opacity:1" fill="#222222" d="M 2664.5,955.5 C 2666.17,955.5 2667.83,955.5 2669.5,955.5C 2669.5,956.5 2669.5,957.5 2669.5,958.5C 2668.5,958.5 2667.5,958.5 2666.5,958.5C 2666.5,959.5 2666.5,960.5 2666.5,961.5C 2667.5,961.5 2668.5,961.5 2669.5,961.5C 2669.5,962.833 2669.5,964.167 2669.5,965.5C 2668.5,965.5 2667.5,965.5 2666.5,965.5C 2666.5,968.167 2666.5,970.833 2666.5,973.5C 2665.18,973.67 2664.01,973.337 2663,972.5C 2662.74,969.337 2661.91,966.337 2660.5,963.5C 2661.84,960.758 2663.17,958.092 2664.5,955.5 Z"/></g>
<g><path style="opacity:0.753" fill="#fefffe" d="M 2696.5,955.5 C 2698.14,955.286 2699.64,955.62 2701,956.5C 2703.34,961.343 2705.17,966.343 2706.5,971.5C 2703.84,970.186 2701.17,968.852 2698.5,967.5C 2696.12,968.276 2694.12,969.609 2692.5,971.5C 2691.83,971.333 2691.17,971.167 2690.5,971C 2692.8,965.944 2694.8,960.778 2696.5,955.5 Z M 2698.5,960.5 C 2701.55,963.504 2700.88,964.67 2696.5,964C 2697.31,962.887 2697.97,961.721 2698.5,960.5 Z"/></g>
<g><path style="opacity:0.798" fill="#fefffe" d="M 2708.5,955.5 C 2709.5,955.5 2710.5,955.5 2711.5,955.5C 2711.5,959.833 2711.5,964.167 2711.5,968.5C 2714.5,968.5 2717.5,968.5 2720.5,968.5C 2720.5,969.5 2720.5,970.5 2720.5,971.5C 2716.5,971.5 2712.5,971.5 2708.5,971.5C 2708.5,966.167 2708.5,960.833 2708.5,955.5 Z"/></g>
<g><path style="opacity:0.769" fill="#fefffe" d="M 2728.5,955.5 C 2732.18,955.335 2735.85,955.501 2739.5,956C 2742.2,959.534 2741.87,962.867 2738.5,966C 2739.79,967.41 2740.95,968.91 2742,970.5C 2743.74,965.794 2745.57,961.127 2747.5,956.5C 2748.72,955.386 2750.06,955.219 2751.5,956C 2754.19,960.911 2756.19,966.077 2757.5,971.5C 2754.84,970.186 2752.17,968.852 2749.5,967.5C 2747.45,967.616 2746.11,968.616 2745.5,970.5C 2740.3,972.734 2736.63,971.234 2734.5,966C 2733.55,965.517 2732.55,965.351 2731.5,965.5C 2731.5,967.5 2731.5,969.5 2731.5,971.5C 2730.5,971.5 2729.5,971.5 2728.5,971.5C 2728.5,966.167 2728.5,960.833 2728.5,955.5 Z M 2731.5,958.5 C 2733.53,958.338 2735.53,958.505 2737.5,959C 2738.83,960 2738.83,961 2737.5,962C 2735.53,962.495 2733.53,962.662 2731.5,962.5C 2731.5,961.167 2731.5,959.833 2731.5,958.5 Z M 2749.5,960.5 C 2752.55,963.504 2751.88,964.67 2747.5,964C 2748.31,962.887 2748.97,961.721 2749.5,960.5 Z"/></g>
<g><path style="opacity:0.774" fill="#fefffe" d="M 2766.5,955.5 C 2767.5,955.5 2768.5,955.5 2769.5,955.5C 2769.67,960.179 2769.5,964.845 2769,969.5C 2766.1,971.745 2762.94,972.078 2759.5,970.5C 2758.12,968.034 2758.62,966.034 2761,964.5C 2761.49,965.793 2761.66,967.127 2761.5,968.5C 2763.14,968.714 2764.64,968.38 2766,967.5C 2766.5,963.514 2766.67,959.514 2766.5,955.5 Z"/></g>
<g><path style="opacity:0.753" fill="#fefffe" d="M 2776.5,955.5 C 2777.98,955.238 2779.31,955.571 2780.5,956.5C 2782.41,961.391 2784.41,966.224 2786.5,971C 2785.83,971.167 2785.17,971.333 2784.5,971.5C 2782.88,969.609 2780.88,968.276 2778.5,967.5C 2775.83,968.852 2773.16,970.186 2770.5,971.5C 2771.94,965.954 2773.94,960.62 2776.5,955.5 Z M 2777.5,959.5 C 2778.93,960.78 2779.6,962.447 2779.5,964.5C 2778.32,964.719 2777.32,964.386 2776.5,963.5C 2777.25,962.264 2777.58,960.93 2777.5,959.5 Z"/></g>
<g><path style="opacity:0.794" fill="#fefffe" d="M 2793.5,955.5 C 2795.29,955.215 2796.95,955.548 2798.5,956.5C 2799.56,959.627 2800.9,962.627 2802.5,965.5C 2803.96,962.628 2805.12,959.628 2806,956.5C 2807.36,955.62 2808.86,955.286 2810.5,955.5C 2810.5,960.833 2810.5,966.167 2810.5,971.5C 2809.5,971.5 2808.5,971.5 2807.5,971.5C 2807.74,959.738 2806.74,959.738 2804.5,971.5C 2802.86,971.714 2801.36,971.38 2800,970.5C 2797.1,958.53 2795.93,958.864 2796.5,971.5C 2795.5,971.5 2794.5,971.5 2793.5,971.5C 2793.5,966.167 2793.5,960.833 2793.5,955.5 Z"/></g>
<g><path style="opacity:0.745" fill="#fefffe" d="M 2813.5,955.5 C 2817.83,955.5 2822.17,955.5 2826.5,955.5C 2826.5,956.5 2826.5,957.5 2826.5,958.5C 2823.17,958.5 2819.83,958.5 2816.5,958.5C 2816.5,959.5 2816.5,960.5 2816.5,961.5C 2819.17,961.5 2821.83,961.5 2824.5,961.5C 2824.5,962.5 2824.5,963.5 2824.5,964.5C 2821.83,964.5 2819.17,964.5 2816.5,964.5C 2816.5,965.833 2816.5,967.167 2816.5,968.5C 2819.83,968.5 2823.17,968.5 2826.5,968.5C 2826.5,969.5 2826.5,970.5 2826.5,971.5C 2822.17,971.5 2817.83,971.5 2813.5,971.5C 2813.5,966.167 2813.5,960.833 2813.5,955.5 Z"/></g>
<g><path style="opacity:0.763" fill="#fefffe" d="M 2828.5,955.5 C 2832.18,955.335 2835.85,955.501 2839.5,956C 2840.8,956.804 2841.47,957.971 2841.5,959.5C 2840.27,961.987 2840.27,964.487 2841.5,967C 2841.56,968.711 2840.89,970.044 2839.5,971C 2835.85,971.499 2832.18,971.665 2828.5,971.5C 2828.5,966.167 2828.5,960.833 2828.5,955.5 Z M 2831.5,958.5 C 2833.5,958.5 2835.5,958.5 2837.5,958.5C 2837.5,959.5 2837.5,960.5 2837.5,961.5C 2835.5,961.5 2833.5,961.5 2831.5,961.5C 2831.5,960.5 2831.5,959.5 2831.5,958.5 Z M 2831.5,964.5 C 2834.16,964.162 2836.49,964.829 2838.5,966.5C 2838.29,967.086 2837.96,967.586 2837.5,968C 2835.53,968.495 2833.53,968.662 2831.5,968.5C 2831.5,967.167 2831.5,965.833 2831.5,964.5 Z"/></g>
<g><path style="opacity:0.745" fill="#fefffe" d="M 2843.5,955.5 C 2847.83,955.5 2852.17,955.5 2856.5,955.5C 2856.5,956.5 2856.5,957.5 2856.5,958.5C 2853.17,958.5 2849.83,958.5 2846.5,958.5C 2846.5,959.5 2846.5,960.5 2846.5,961.5C 2849.17,961.5 2851.83,961.5 2854.5,961.5C 2854.5,962.5 2854.5,963.5 2854.5,964.5C 2851.83,964.5 2849.17,964.5 2846.5,964.5C 2846.5,965.833 2846.5,967.167 2846.5,968.5C 2849.83,968.5 2853.17,968.5 2856.5,968.5C 2856.5,969.5 2856.5,970.5 2856.5,971.5C 2852.17,971.5 2847.83,971.5 2843.5,971.5C 2843.5,966.167 2843.5,960.833 2843.5,955.5 Z"/></g>
<g><path style="opacity:0.798" fill="#fefffe" d="M 2858.5,955.5 C 2859.5,955.5 2860.5,955.5 2861.5,955.5C 2861.5,959.833 2861.5,964.167 2861.5,968.5C 2864.5,968.5 2867.5,968.5 2870.5,968.5C 2870.5,969.5 2870.5,970.5 2870.5,971.5C 2866.5,971.5 2862.5,971.5 2858.5,971.5C 2858.5,966.167 2858.5,960.833 2858.5,955.5 Z"/></g>
<g><path style="opacity:0.62" fill="#fefffe" d="M 950.5,960.5 C 952.936,960.749 954.936,961.749 956.5,963.5C 956.192,964.308 955.692,964.975 955,965.5C 952.877,963.328 950.711,963.161 948.5,965C 951.308,965.598 953.808,966.765 956,968.5C 957.058,972.288 955.558,974.288 951.5,974.5C 949.289,973.877 947.289,972.877 945.5,971.5C 945.833,970.5 946.5,969.833 947.5,969.5C 949.412,971.156 951.412,971.489 953.5,970.5C 951.78,969.066 949.78,968.233 947.5,968C 944.807,964.158 945.807,961.658 950.5,960.5 Z"/></g>
<g><path style="opacity:0.653" fill="#fefffe" d="M 976.5,960.5 C 978.441,960.869 980.275,961.536 982,962.5C 982.563,963.725 982.23,964.725 981,965.5C 979.445,963.485 977.611,963.152 975.5,964.5C 977.22,965.934 979.22,966.767 981.5,967C 983.877,970.766 982.71,973.266 978,974.5C 975.465,974.235 973.632,973.069 972.5,971C 972.833,970.5 973.167,970 973.5,969.5C 975.836,971.585 978.169,971.751 980.5,970C 977.78,969.203 975.28,968.037 973,966.5C 972.372,963.42 973.538,961.42 976.5,960.5 Z"/></g>
<g><path style="opacity:0.613" fill="#fefffe" d="M 1024.5,960.5 C 1028.14,960.447 1030.14,962.113 1030.5,965.5C 1028.52,965.617 1026.85,964.95 1025.5,963.5C 1021.5,966.167 1021.5,968.833 1025.5,971.5C 1027.28,969.553 1029.28,969.22 1031.5,970.5C 1027.65,975.68 1023.82,975.68 1020,970.5C 1018.56,965.723 1020.06,962.39 1024.5,960.5 Z"/></g>
<g><path style="opacity:0.68" fill="#fefffe" d="M 788.5,969.5 C 788.5,970.833 788.5,972.167 788.5,973.5C 787.5,973.5 786.5,973.5 785.5,973.5C 785.5,969.5 785.5,965.5 785.5,961.5C 786.978,961.238 788.311,961.571 789.5,962.5C 790.432,964.795 791.265,967.129 792,969.5C 792.822,967.212 793.489,964.878 794,962.5C 795.356,961.62 796.856,961.286 798.5,961.5C 798.5,965.5 798.5,969.5 798.5,973.5C 797.5,973.5 796.5,973.5 795.5,973.5C 795.662,971.473 795.495,969.473 795,967.5C 793.928,974.39 791.762,975.056 788.5,969.5 Z"/></g>
<g><path style="opacity:0.68" fill="#fefffe" d="M 818.5,961.5 C 819.978,961.238 821.311,961.571 822.5,962.5C 824.588,966.313 825.755,970.313 826,974.5C 822.333,969.167 818.667,969.167 815,974.5C 815.834,970.15 817.001,965.817 818.5,961.5 Z M 819.5,965.5 C 819.281,966.675 819.614,967.675 820.5,968.5C 821.798,966.948 821.465,965.948 819.5,965.5 Z"/></g>
<g><path style="opacity:0.743" fill="#fefffe" d="M 840.5,961.5 C 844.226,961.177 847.893,961.511 851.5,962.5C 849.922,963.298 848.256,963.798 846.5,964C 847.451,967.057 847.784,970.223 847.5,973.5C 846.5,973.5 845.5,973.5 844.5,973.5C 844.5,970.167 844.5,966.833 844.5,963.5C 842.517,963.843 841.183,963.176 840.5,961.5 Z"/></g>
<g><path style="opacity:0.734" fill="#fefffe" d="M 866.5,961.5 C 870.226,961.177 873.893,961.511 877.5,962.5C 876.311,963.429 874.978,963.762 873.5,963.5C 873.5,966.833 873.5,970.167 873.5,973.5C 872.5,973.5 871.5,973.5 870.5,973.5C 870.5,970.167 870.5,966.833 870.5,963.5C 868.517,963.843 867.183,963.176 866.5,961.5 Z"/></g>
<g><path style="opacity:0.653" fill="#fefffe" d="M 893.5,961.5 C 896.777,961.216 899.943,961.549 903,962.5C 903.896,965.025 903.396,967.192 901.5,969C 902.376,970.586 903.376,972.086 904.5,973.5C 904.167,973.833 903.833,974.167 903.5,974.5C 901.344,972.427 899.011,970.76 896.5,969.5C 896.5,970.833 896.5,972.167 896.5,973.5C 895.5,973.5 894.5,973.5 893.5,973.5C 893.5,969.5 893.5,965.5 893.5,961.5 Z M 896.5,963.5 C 896.5,964.5 896.5,965.5 896.5,966.5C 897.978,966.762 899.311,966.429 900.5,965.5C 899.68,963.889 898.346,963.222 896.5,963.5 Z"/></g>
<g><path style="opacity:0.723" fill="#fefffe" d="M 920.5,961.5 C 923.898,961.18 927.232,961.513 930.5,962.5C 928.167,963.167 925.833,963.833 923.5,964.5C 925.045,965.452 926.712,965.785 928.5,965.5C 928.5,966.5 928.5,967.5 928.5,968.5C 926.833,968.5 925.167,968.5 923.5,968.5C 923.5,969.5 923.5,970.5 923.5,971.5C 925.924,971.192 928.257,971.526 930.5,972.5C 927.232,973.487 923.898,973.82 920.5,973.5C 920.5,969.5 920.5,965.5 920.5,961.5 Z"/></g>
<g><path style="opacity:0.722" fill="#fefffe" d="M 1047.5,961.5 C 1050.9,961.18 1054.23,961.513 1057.5,962.5C 1055.17,963.167 1052.83,963.833 1050.5,964.5C 1052.05,965.452 1053.71,965.785 1055.5,965.5C 1055.5,966.5 1055.5,967.5 1055.5,968.5C 1053.83,968.5 1052.17,968.5 1050.5,968.5C 1050.5,969.5 1050.5,970.5 1050.5,971.5C 1052.92,971.192 1055.26,971.526 1057.5,972.5C 1054.23,973.487 1050.9,973.82 1047.5,973.5C 1047.5,969.5 1047.5,965.5 1047.5,961.5 Z"/></g>
<g><path style="opacity:0.64" fill="#fefffe" d="M 1081.5,968.5 C 1081.5,966.167 1081.5,963.833 1081.5,961.5C 1082.5,961.5 1083.5,961.5 1084.5,961.5C 1084.5,965.5 1084.5,969.5 1084.5,973.5C 1083.02,973.762 1081.69,973.429 1080.5,972.5C 1077.16,964.189 1075.82,964.522 1076.5,973.5C 1075.5,973.5 1074.5,973.5 1073.5,973.5C 1073.5,969.5 1073.5,965.5 1073.5,961.5C 1074.87,961.343 1076.21,961.51 1077.5,962C 1078.73,964.314 1080.07,966.481 1081.5,968.5 Z"/></g>
<g><path style="opacity:0.725" fill="#fefffe" d="M 1100.5,961.5 C 1104.23,961.177 1107.89,961.511 1111.5,962.5C 1110.31,963.429 1108.98,963.762 1107.5,963.5C 1107.5,966.833 1107.5,970.167 1107.5,973.5C 1106.5,973.5 1105.5,973.5 1104.5,973.5C 1104.5,970.167 1104.5,966.833 1104.5,963.5C 1102.52,963.843 1101.18,963.176 1100.5,961.5 Z"/></g>
<g><path style="opacity:0.816" fill="#fefffe" d="M 1128.5,961.5 C 1131.57,961.183 1134.57,961.516 1137.5,962.5C 1135.17,963.167 1132.83,963.833 1130.5,964.5C 1132.4,965.466 1134.4,965.799 1136.5,965.5C 1136.5,966.5 1136.5,967.5 1136.5,968.5C 1134.5,968.5 1132.5,968.5 1130.5,968.5C 1130.5,969.5 1130.5,970.5 1130.5,971.5C 1132.92,971.192 1135.26,971.526 1137.5,972.5C 1134.57,973.484 1131.57,973.817 1128.5,973.5C 1128.5,969.5 1128.5,965.5 1128.5,961.5 Z"/></g>
<g><path style="opacity:0.649" fill="#fefffe" d="M 1154.5,961.5 C 1157.78,961.216 1160.94,961.549 1164,962.5C 1164.84,965.14 1164.34,967.473 1162.5,969.5C 1163.5,970.833 1164.5,972.167 1165.5,973.5C 1164.61,974.59 1163.61,974.59 1162.5,973.5C 1161.5,971.833 1160.17,970.5 1158.5,969.5C 1157.57,970.689 1157.24,972.022 1157.5,973.5C 1156.5,973.5 1155.5,973.5 1154.5,973.5C 1154.5,969.5 1154.5,965.5 1154.5,961.5 Z M 1157.5,963.5 C 1157.5,964.5 1157.5,965.5 1157.5,966.5C 1158.98,966.762 1160.31,966.429 1161.5,965.5C 1160.68,963.889 1159.35,963.222 1157.5,963.5 Z"/></g>
<g><path style="opacity:0.91" fill="#fdfdfd" d="M 2631.5,989.5 C 2646.65,987.819 2653.15,994.486 2651,1009.5C 2646.94,1017.61 2640.44,1020.44 2631.5,1018C 2623.39,1013.94 2620.56,1007.44 2623,998.5C 2624.69,994.315 2627.52,991.315 2631.5,989.5 Z"/></g>
<g><path style="opacity:0.571" fill="#fefffe" d="M 2714.5,992.5 C 2716.35,992.222 2717.68,992.889 2718.5,994.5C 2717.68,996.111 2716.35,996.778 2714.5,996.5C 2714.5,995.167 2714.5,993.833 2714.5,992.5 Z"/></g>
<g><path style="opacity:0.78" fill="#fefffe" d="M 2676.5,993.5 C 2677.5,993.5 2678.5,993.5 2679.5,993.5C 2678.78,999.008 2679.78,1004.01 2682.5,1008.5C 2680.6,1009.47 2678.6,1009.8 2676.5,1009.5C 2676.5,1004.17 2676.5,998.833 2676.5,993.5 Z"/></g>
<g><path style="opacity:0.788" fill="#fefffe" d="M 2779.5,993.5 C 2780.5,993.5 2781.5,993.5 2782.5,993.5C 2782.5,994.833 2782.5,996.167 2782.5,997.5C 2787.83,998.167 2787.83,998.833 2782.5,999.5C 2782.5,1001.83 2782.5,1004.17 2782.5,1006.5C 2783.83,1006.5 2785.17,1006.5 2786.5,1006.5C 2786.5,1007.5 2786.5,1008.5 2786.5,1009.5C 2784.21,1009.76 2782.04,1009.42 2780,1008.5C 2779.5,1005.52 2779.34,1002.52 2779.5,999.5C 2775.5,998.833 2775.5,998.167 2779.5,997.5C 2779.5,996.167 2779.5,994.833 2779.5,993.5 Z"/></g>
<g><path style="opacity:0.788" fill="#fefffe" d="M 2878.5,1007.5 C 2877.85,1008.73 2876.68,1009.39 2875,1009.5C 2873.56,1009.44 2872.23,1009.11 2871,1008.5C 2870.96,1004.91 2870.13,1001.58 2868.5,998.5C 2870,997.158 2870.67,995.492 2870.5,993.5C 2871.5,993.5 2872.5,993.5 2873.5,993.5C 2873.5,994.833 2873.5,996.167 2873.5,997.5C 2878.83,998.167 2878.83,998.833 2873.5,999.5C 2873.5,1001.83 2873.5,1004.17 2873.5,1006.5C 2875.29,1006.37 2876.96,1006.7 2878.5,1007.5 Z"/></g>
<g><path style="opacity:1" fill="#1f1f1f" d="M 2631.5,995.5 C 2643.33,993.162 2647.83,997.829 2645,1009.5C 2644.17,1010.33 2643.33,1011.17 2642.5,1012C 2630.67,1014.83 2626.17,1010.33 2629,998.5C 2630.04,997.627 2630.88,996.627 2631.5,995.5 Z"/></g>
<g><path style="opacity:1" fill="#f5f5f5" d="M 2642.5,998.5 C 2643.64,1001.98 2643.81,1005.64 2643,1009.5C 2639.26,1010.63 2635.42,1010.79 2631.5,1010C 2627.35,998.323 2631.01,994.49 2642.5,998.5 Z"/></g>
<g><path style="opacity:0.771" fill="#fefffe" d="M 2664.5,997.5 C 2667.19,997.336 2669.85,997.503 2672.5,998C 2672.98,1001.68 2673.98,1005.18 2675.5,1008.5C 2672.05,1009.05 2668.39,1009.22 2664.5,1009C 2663.42,1007.27 2663.26,1005.44 2664,1003.5C 2666.15,1002.89 2668.31,1002.22 2670.5,1001.5C 2670.17,1000.5 2669.5,999.833 2668.5,999.5C 2667.15,1000.95 2665.48,1001.62 2663.5,1001.5C 2663.43,1000.04 2663.77,998.708 2664.5,997.5 Z M 2667.5,1004.5 C 2669.35,1004.27 2670.19,1004.94 2670,1006.5C 2667.37,1007.69 2666.53,1007.03 2667.5,1004.5 Z"/></g>
<g><path style="opacity:0.755" fill="#fefffe" d="M 2694.5,997.5 C 2697.39,997.042 2699.89,997.709 2702,999.5C 2705.33,996.833 2708.67,996.833 2712,999.5C 2712.26,1002.56 2712.76,1005.56 2713.5,1008.5C 2709.83,1009.83 2706.17,1009.83 2702.5,1008.5C 2701.05,1006.36 2701.38,1004.52 2703.5,1003C 2705.5,1002.67 2707.5,1002.33 2709.5,1002C 2708.67,1001.17 2707.83,1000.33 2707,999.5C 2706.2,1000.8 2705.03,1001.47 2703.5,1001.5C 2701.59,1000.45 2699.76,1000.45 2698,1001.5C 2697.5,1004.15 2697.34,1006.81 2697.5,1009.5C 2696.5,1009.5 2695.5,1009.5 2694.5,1009.5C 2694.5,1005.5 2694.5,1001.5 2694.5,997.5 Z M 2706.5,1004.5 C 2710.1,1004.68 2710.1,1005.68 2706.5,1007.5C 2703.95,1006.45 2703.95,1005.45 2706.5,1004.5 Z"/></g>
<g><path style="opacity:0.777" fill="#fefffe" d="M 2714.5,997.5 C 2715.5,997.5 2716.5,997.5 2717.5,997.5C 2717.67,1002.51 2717.5,1007.51 2717,1012.5C 2715.3,1013.41 2713.47,1013.74 2711.5,1013.5C 2711.5,1012.5 2711.5,1011.5 2711.5,1010.5C 2712.5,1010.5 2713.5,1010.5 2714.5,1010.5C 2714.5,1006.17 2714.5,1001.83 2714.5,997.5 Z"/></g>
<g><path style="opacity:0.739" fill="#fefffe" d="M 2721.5,997.5 C 2724.69,997.02 2727.52,997.686 2730,999.5C 2730.26,1002.56 2730.76,1005.56 2731.5,1008.5C 2727.83,1009.83 2724.17,1009.83 2720.5,1008.5C 2719.05,1006.36 2719.38,1004.52 2721.5,1003C 2723.5,1002.67 2725.5,1002.33 2727.5,1002C 2726.67,1001.17 2725.83,1000.33 2725,999.5C 2723.44,1001.52 2721.61,1001.85 2719.5,1000.5C 2720.19,999.482 2720.86,998.482 2721.5,997.5 Z M 2724.5,1004.5 C 2728.1,1004.68 2728.1,1005.68 2724.5,1007.5C 2721.95,1006.45 2721.95,1005.45 2724.5,1004.5 Z"/></g>
<g><path style="opacity:0.776" fill="#fefffe" d="M 2744.5,997.5 C 2750.15,997.663 2755.82,997.829 2761.5,998C 2762,998.5 2762.5,999 2763,999.5C 2763.5,1002.82 2763.67,1006.15 2763.5,1009.5C 2762.5,1009.5 2761.5,1009.5 2760.5,1009.5C 2760.66,1006.81 2760.5,1004.15 2760,1001.5C 2758.29,1000.07 2756.95,1000.41 2756,1002.5C 2755.5,1004.81 2755.34,1007.14 2755.5,1009.5C 2754.5,1009.5 2753.5,1009.5 2752.5,1009.5C 2752.5,1006.5 2752.5,1003.5 2752.5,1000.5C 2751.02,1000.24 2749.69,1000.57 2748.5,1001.5C 2747.61,1004.08 2747.27,1006.75 2747.5,1009.5C 2746.5,1009.5 2745.5,1009.5 2744.5,1009.5C 2744.5,1005.5 2744.5,1001.5 2744.5,997.5 Z"/></g>
<g><path style="opacity:0.771" fill="#fefffe" d="M 2766.5,997.5 C 2769.19,997.336 2771.85,997.503 2774.5,998C 2774.98,1001.68 2775.98,1005.18 2777.5,1008.5C 2774.05,1009.05 2770.39,1009.22 2766.5,1009C 2765.42,1007.27 2765.26,1005.44 2766,1003.5C 2768.15,1002.89 2770.31,1002.22 2772.5,1001.5C 2772.17,1000.5 2771.5,999.833 2770.5,999.5C 2769.15,1000.95 2767.48,1001.62 2765.5,1001.5C 2765.43,1000.04 2765.77,998.708 2766.5,997.5 Z M 2769.5,1004.5 C 2771.35,1004.27 2772.19,1004.94 2772,1006.5C 2769.37,1007.69 2768.53,1007.03 2769.5,1004.5 Z"/></g>
<g><path style="opacity:0.788" fill="#fefffe" d="M 2787.5,997.5 C 2789.83,997.5 2792.17,997.5 2794.5,997.5C 2794.5,998.5 2794.5,999.5 2794.5,1000.5C 2793.18,1000.33 2792.01,1000.66 2791,1001.5C 2790.5,1004.15 2790.34,1006.81 2790.5,1009.5C 2789.5,1009.5 2788.5,1009.5 2787.5,1009.5C 2787.5,1005.5 2787.5,1001.5 2787.5,997.5 Z"/></g>
<g><path style="opacity:0.747" fill="#fefffe" d="M 2796.5,997.5 C 2799.19,997.336 2801.85,997.503 2804.5,998C 2805.13,1000.8 2805.79,1003.63 2806.5,1006.5C 2808.6,1005.52 2810.6,1005.85 2812.5,1007.5C 2813.31,1007.19 2813.97,1006.69 2814.5,1006C 2812.24,1005.36 2810.07,1004.52 2808,1003.5C 2807.33,1001.83 2807.33,1000.17 2808,998.5C 2810.74,997.39 2813.57,997.223 2816.5,998C 2817.83,999 2817.83,1000 2816.5,1001C 2814.95,1001.33 2813.62,1000.83 2812.5,999.5C 2811.69,999.808 2811.03,1000.31 2810.5,1001C 2812.66,1001.91 2814.83,1002.75 2817,1003.5C 2817.67,1005.17 2817.67,1006.83 2817,1008.5C 2810.21,1009.23 2803.38,1009.4 2796.5,1009C 2795.42,1007.27 2795.26,1005.44 2796,1003.5C 2798.15,1002.89 2800.31,1002.22 2802.5,1001.5C 2802.17,1000.5 2801.5,999.833 2800.5,999.5C 2799.15,1000.95 2797.48,1001.62 2795.5,1001.5C 2795.43,1000.04 2795.77,998.708 2796.5,997.5 Z M 2799.5,1004.5 C 2801.35,1004.27 2802.19,1004.94 2802,1006.5C 2799.37,1007.69 2798.53,1007.03 2799.5,1004.5 Z"/></g>
<g><path style="opacity:0.679" fill="#fefffe" d="M 2833.5,997.5 C 2836.12,997.232 2838.62,997.565 2841,998.5C 2841.37,999.416 2841.87,1000.25 2842.5,1001C 2841.23,1001.31 2840.07,1001.81 2839,1002.5C 2837.07,998.98 2835.23,999.313 2833.5,1003.5C 2835.32,1007.91 2837.49,1008.24 2840,1004.5C 2842.85,1005.43 2843.01,1006.93 2840.5,1009C 2830.35,1009.87 2828.02,1006.04 2833.5,997.5 Z"/></g>
<g><path style="opacity:0.722" fill="#fefffe" d="M 2845.5,997.5 C 2851.83,995.841 2854.83,998.174 2854.5,1004.5C 2851.75,1004.19 2849.09,1004.52 2846.5,1005.5C 2847.24,1006.29 2848.08,1006.95 2849,1007.5C 2850.82,1005.46 2852.65,1005.3 2854.5,1007C 2851.97,1009.41 2848.97,1010.08 2845.5,1009C 2841.65,1005.19 2841.65,1001.35 2845.5,997.5 Z M 2848.5,999.5 C 2849.29,999.783 2849.96,1000.28 2850.5,1001C 2849.17,1001.67 2847.83,1001.67 2846.5,1001C 2847.42,1000.72 2848.08,1000.22 2848.5,999.5 Z"/></g>
<g><path style="opacity:0.798" fill="#fefffe" d="M 2856.5,997.5 C 2866.34,995.677 2870.01,999.677 2867.5,1009.5C 2866.5,1009.5 2865.5,1009.5 2864.5,1009.5C 2864.66,1006.81 2864.5,1004.15 2864,1001.5C 2862.67,1000.17 2861.33,1000.17 2860,1001.5C 2859.5,1004.15 2859.34,1006.81 2859.5,1009.5C 2858.5,1009.5 2857.5,1009.5 2856.5,1009.5C 2856.5,1005.5 2856.5,1001.5 2856.5,997.5 Z"/></g>
<g><path style="opacity:0.722" fill="#fefffe" d="M 2878.5,1007.5 C 2876.51,999.653 2879.51,996.487 2887.5,998C 2889.23,999.789 2889.9,1001.96 2889.5,1004.5C 2886.75,1004.19 2884.09,1004.52 2881.5,1005.5C 2882.24,1006.29 2883.08,1006.95 2884,1007.5C 2885.82,1005.46 2887.65,1005.3 2889.5,1007C 2885.97,1010.15 2882.3,1010.31 2878.5,1007.5 Z M 2883.5,999.5 C 2884.29,999.783 2884.96,1000.28 2885.5,1001C 2884.17,1001.67 2882.83,1001.67 2881.5,1001C 2882.42,1000.72 2883.08,1000.22 2883.5,999.5 Z"/></g>
<g><path style="opacity:0.726" fill="#fefffe" d="M 2891.5,997.5 C 2894.17,997.5 2896.83,997.5 2899.5,997.5C 2899.5,998.5 2899.5,999.5 2899.5,1000.5C 2898.02,1000.24 2896.69,1000.57 2895.5,1001.5C 2894.61,1004.08 2894.27,1006.75 2894.5,1009.5C 2893.5,1009.5 2892.5,1009.5 2891.5,1009.5C 2891.5,1005.5 2891.5,1001.5 2891.5,997.5 Z"/></g>
<g><path style="opacity:1" fill="#1e1e1e" d="M 2642.5,998.5 C 2642.36,1000.34 2641.69,1000.67 2640.5,999.5C 2640.96,998.702 2641.62,998.369 2642.5,998.5 Z"/></g>
<g><path style="opacity:1" fill="#1e1e1e" d="M 2635.5,999.5 C 2640.01,999.991 2641.68,1002.32 2640.5,1006.5C 2636.75,1009.42 2634.08,1008.58 2632.5,1004C 2633.31,1002.36 2634.31,1000.86 2635.5,999.5 Z"/></g>
<g><path style="opacity:1" fill="#fdfdfd" d="M 2635.5,1001.5 C 2639.16,1001.35 2640.16,1002.85 2638.5,1006C 2634.71,1006.49 2633.71,1004.99 2635.5,1001.5 Z"/></g>
<g><path style="opacity:0.713" fill="#fefffe" d="M 2680.5,1011.5 C 2684.83,1011.5 2689.17,1011.5 2693.5,1011.5C 2693.5,1012.5 2693.5,1013.5 2693.5,1014.5C 2689.17,1014.5 2684.83,1014.5 2680.5,1014.5C 2680.5,1013.5 2680.5,1012.5 2680.5,1011.5 Z"/></g>
<g><path style="opacity:0.713" fill="#fefffe" d="M 2731.5,1011.5 C 2735.83,1011.5 2740.17,1011.5 2744.5,1011.5C 2744.5,1012.5 2744.5,1013.5 2744.5,1014.5C 2740.17,1014.5 2735.83,1014.5 2731.5,1014.5C 2731.5,1013.5 2731.5,1012.5 2731.5,1011.5 Z"/></g>
<g><path style="opacity:0.713" fill="#fefffe" d="M 2818.5,1011.5 C 2822.83,1011.5 2827.17,1011.5 2831.5,1011.5C 2831.5,1012.5 2831.5,1013.5 2831.5,1014.5C 2827.17,1014.5 2822.83,1014.5 2818.5,1014.5C 2818.5,1013.5 2818.5,1012.5 2818.5,1011.5 Z"/></g>
<g><path style="opacity:0.931" fill="#fcfcfc" d="M 2685.5,1026.5 C 2702.61,1026.38 2708.11,1034.38 2702,1050.5C 2695.8,1056.1 2688.97,1056.94 2681.5,1053C 2675.87,1046.46 2675.04,1039.29 2679,1031.5C 2680.97,1029.45 2683.13,1027.78 2685.5,1026.5 Z"/></g>
<g><path style="opacity:0.571" fill="#fefffe" d="M 2760.5,1029.5 C 2762.35,1029.22 2763.68,1029.89 2764.5,1031.5C 2763.68,1033.11 2762.35,1033.78 2760.5,1033.5C 2760.5,1032.17 2760.5,1030.83 2760.5,1029.5 Z"/></g>
<g><path style="opacity:0.754" fill="#fefffe" d="M 2722.5,1030.5 C 2723.98,1030.24 2725.31,1030.57 2726.5,1031.5C 2728.41,1036.39 2730.41,1041.22 2732.5,1046C 2731.83,1046.17 2731.17,1046.33 2730.5,1046.5C 2728.88,1044.61 2726.88,1043.28 2724.5,1042.5C 2721.83,1043.85 2719.16,1045.19 2716.5,1046.5C 2717.94,1040.95 2719.94,1035.62 2722.5,1030.5 Z M 2723.5,1034.5 C 2724.93,1035.78 2725.6,1037.45 2725.5,1039.5C 2724.32,1039.72 2723.32,1039.39 2722.5,1038.5C 2723.25,1037.26 2723.58,1035.93 2723.5,1034.5 Z"/></g>
<g><path style="opacity:0.78" fill="#fefffe" d="M 2733.5,1030.5 C 2734.5,1030.5 2735.5,1030.5 2736.5,1030.5C 2735.78,1036.01 2736.78,1041.01 2739.5,1045.5C 2737.6,1046.47 2735.6,1046.8 2733.5,1046.5C 2733.5,1041.17 2733.5,1035.83 2733.5,1030.5 Z"/></g>
<g><path style="opacity:0.715" fill="#fefffe" d="M 2812.5,1030.5 C 2813.5,1030.5 2814.5,1030.5 2815.5,1030.5C 2815.34,1032.2 2815.51,1033.87 2816,1035.5C 2820.59,1033.32 2823.59,1034.65 2825,1039.5C 2826.45,1034.78 2829.62,1033.28 2834.5,1035C 2836.23,1036.79 2836.9,1038.96 2836.5,1041.5C 2833.75,1041.19 2831.09,1041.52 2828.5,1042.5C 2829.24,1043.29 2830.08,1043.95 2831,1044.5C 2832.82,1042.46 2834.65,1042.3 2836.5,1044C 2833.97,1046.41 2830.97,1047.08 2827.5,1046C 2826.11,1044.83 2825.27,1043.33 2825,1041.5C 2824.29,1043.08 2823.46,1044.58 2822.5,1046C 2819.18,1046.5 2815.85,1046.67 2812.5,1046.5C 2812.5,1041.17 2812.5,1035.83 2812.5,1030.5 Z M 2830.5,1036.5 C 2831.29,1036.78 2831.96,1037.28 2832.5,1038C 2831.17,1038.67 2829.83,1038.67 2828.5,1038C 2829.42,1037.72 2830.08,1037.22 2830.5,1036.5 Z M 2816.5,1037.5 C 2820.52,1037.24 2821.85,1038.91 2820.5,1042.5C 2816.15,1043.51 2814.82,1041.85 2816.5,1037.5 Z"/></g>
<g><path style="opacity:0.78" fill="#fefffe" d="M 2839.5,1030.5 C 2840.5,1030.5 2841.5,1030.5 2842.5,1030.5C 2841.78,1036.01 2842.78,1041.01 2845.5,1045.5C 2843.6,1046.47 2841.6,1046.8 2839.5,1046.5C 2839.5,1041.17 2839.5,1035.83 2839.5,1030.5 Z"/></g>
<g><path style="opacity:1" fill="#1f1f1f" d="M 2690.5,1032.5 C 2691.68,1032.28 2692.68,1032.61 2693.5,1033.5C 2695.5,1035.13 2696.84,1037.13 2697.5,1039.5C 2696.18,1039.67 2695.01,1039.34 2694,1038.5C 2693.67,1041.17 2693.33,1043.83 2693,1046.5C 2690,1050.5 2687,1050.5 2684,1046.5C 2682.71,1041.29 2684.55,1039.29 2689.5,1040.5C 2687.02,1041.72 2686.02,1043.72 2686.5,1046.5C 2687.83,1046.5 2689.17,1046.5 2690.5,1046.5C 2690.5,1041.83 2690.5,1037.17 2690.5,1032.5 Z"/></g>
<g><path style="opacity:0.755" fill="#fefffe" d="M 2740.5,1034.5 C 2743.39,1034.04 2745.89,1034.71 2748,1036.5C 2751.33,1033.83 2754.67,1033.83 2758,1036.5C 2758.26,1039.56 2758.76,1042.56 2759.5,1045.5C 2755.83,1046.83 2752.17,1046.83 2748.5,1045.5C 2747.05,1043.36 2747.38,1041.52 2749.5,1040C 2751.5,1039.67 2753.5,1039.33 2755.5,1039C 2754.67,1038.17 2753.83,1037.33 2753,1036.5C 2752.2,1037.8 2751.03,1038.47 2749.5,1038.5C 2747.59,1037.45 2745.76,1037.45 2744,1038.5C 2743.5,1041.15 2743.34,1043.81 2743.5,1046.5C 2742.5,1046.5 2741.5,1046.5 2740.5,1046.5C 2740.5,1042.5 2740.5,1038.5 2740.5,1034.5 Z M 2752.5,1041.5 C 2756.1,1041.68 2756.1,1042.68 2752.5,1044.5C 2749.95,1043.45 2749.95,1042.45 2752.5,1041.5 Z"/></g>
<g><path style="opacity:0.777" fill="#fefffe" d="M 2760.5,1034.5 C 2761.5,1034.5 2762.5,1034.5 2763.5,1034.5C 2763.67,1039.51 2763.5,1044.51 2763,1049.5C 2761.3,1050.41 2759.47,1050.74 2757.5,1050.5C 2757.5,1049.5 2757.5,1048.5 2757.5,1047.5C 2758.5,1047.5 2759.5,1047.5 2760.5,1047.5C 2760.5,1043.17 2760.5,1038.83 2760.5,1034.5 Z"/></g>
<g><path style="opacity:0.739" fill="#fefffe" d="M 2767.5,1034.5 C 2770.69,1034.02 2773.52,1034.69 2776,1036.5C 2776.26,1039.56 2776.76,1042.56 2777.5,1045.5C 2773.83,1046.83 2770.17,1046.83 2766.5,1045.5C 2765.05,1043.36 2765.38,1041.52 2767.5,1040C 2769.5,1039.67 2771.5,1039.33 2773.5,1039C 2772.67,1038.17 2771.83,1037.33 2771,1036.5C 2769.44,1038.52 2767.61,1038.85 2765.5,1037.5C 2766.19,1036.48 2766.86,1035.48 2767.5,1034.5 Z M 2770.5,1041.5 C 2774.1,1041.68 2774.1,1042.68 2770.5,1044.5C 2767.95,1043.45 2767.95,1042.45 2770.5,1041.5 Z"/></g>
<g><path style="opacity:0.776" fill="#fefffe" d="M 2778.5,1034.5 C 2784.15,1034.66 2789.82,1034.83 2795.5,1035C 2796,1035.5 2796.5,1036 2797,1036.5C 2797.5,1039.82 2797.67,1043.15 2797.5,1046.5C 2796.5,1046.5 2795.5,1046.5 2794.5,1046.5C 2794.66,1043.81 2794.5,1041.15 2794,1038.5C 2792.29,1037.07 2790.95,1037.41 2790,1039.5C 2789.5,1041.81 2789.34,1044.14 2789.5,1046.5C 2788.5,1046.5 2787.5,1046.5 2786.5,1046.5C 2786.5,1043.5 2786.5,1040.5 2786.5,1037.5C 2785.02,1037.24 2783.69,1037.57 2782.5,1038.5C 2781.61,1041.08 2781.27,1043.75 2781.5,1046.5C 2780.5,1046.5 2779.5,1046.5 2778.5,1046.5C 2778.5,1042.5 2778.5,1038.5 2778.5,1034.5 Z"/></g>
<g><path style="opacity:0.722" fill="#fefffe" d="M 2801.5,1034.5 C 2807.83,1032.84 2810.83,1035.17 2810.5,1041.5C 2807.75,1041.19 2805.09,1041.52 2802.5,1042.5C 2803.24,1043.29 2804.08,1043.95 2805,1044.5C 2806.82,1042.46 2808.65,1042.3 2810.5,1044C 2807.97,1046.41 2804.97,1047.08 2801.5,1046C 2797.65,1042.19 2797.65,1038.35 2801.5,1034.5 Z M 2804.5,1036.5 C 2805.29,1036.78 2805.96,1037.28 2806.5,1038C 2805.17,1038.67 2803.83,1038.67 2802.5,1038C 2803.42,1037.72 2804.08,1037.22 2804.5,1036.5 Z"/></g>
</svg>
